<svg width="24" height="17" viewBox="0 0 24 17" fill="none" xmlns="http://www.w3.org/2000/svg">
<path fill-rule="evenodd" clip-rule="evenodd" d="M20.3906 13.3698C18.2719 15.1871 16.2727 16.0424 15.5348 16.3189C13.3749 17.1873 10.9418 17.2267 8.75156 16.4289L8.71875 16.4245C8.71875 16.4245 6.17766 15.6004 3.375 13.1927C1.22859 11.3488 0 9.15882 0 8.52212C0 7.97759 0.704531 6.283 3.14062 4.02864C6.18422 1.21222 8.71875 0.57552 8.71875 0.57552L8.75344 0.570384C9.86944 0.164107 11.0598 -0.0286119 12.2554 0.00342998C13.4509 0.0354718 14.6278 0.291635 15.7177 0.75703C16.5455 1.09216 18.3272 1.91856 20.2031 3.45312C22.9542 5.70393 24 7.83703 24 8.52212C24 9.18583 22.8502 11.26 20.3906 13.3698ZM12 2.83333C10.8133 2.83333 9.65327 3.16567 8.66658 3.78833C7.67988 4.41099 6.91085 5.296 6.45672 6.33145C6.0026 7.3669 5.88378 8.50627 6.11529 9.6055C6.3468 10.7047 6.91825 11.7144 7.75736 12.5069C8.59648 13.2994 9.66557 13.8391 10.8295 14.0578C11.9933 14.2764 13.1997 14.1642 14.2961 13.7353C15.3925 13.3064 16.3295 12.5801 16.9888 11.6482C17.6481 10.7163 18 9.62075 18 8.49999C18 6.9971 17.3679 5.55576 16.2426 4.49305C15.1174 3.43035 13.5913 2.83333 12 2.83333ZM12 11.3333C11.2044 11.3333 10.4413 11.0348 9.87868 10.5035C9.31607 9.9721 9 9.25143 9 8.49999V8.49773C9.03141 8.4987 9.06234 8.49999 9.09375 8.49999C9.86454 8.49999 10.6037 8.21081 11.1488 7.69606C11.6938 7.18131 12 6.48316 12 5.7552C12 5.72554 11.9986 5.69614 11.9977 5.66666H12C12.7956 5.66666 13.5587 5.96517 14.1213 6.49652C14.6839 7.02787 15 7.74854 15 8.49999C15 9.25143 14.6839 9.9721 14.1213 10.5035C13.5587 11.0348 12.7956 11.3333 12 11.3333Z" fill="#D8D8D8"/>
</svg>
