<svg width="158" height="46" viewBox="0 0 158 46"  fill="none" xmlns="http://www.w3.org/2000/svg"><path d="M133.12 28.966V16.897c0-3.36-3.033-5.691-6.887-5.691H122c-3.854 0-6.887 2.263-6.887 5.691v12.069c0 3.36 3.033 5.691 6.887 5.691h4.233c3.854 0 6.887-2.263 6.887-5.691zm-16.238-12.617c0-1.715 2.085-3.566 4.865-3.566h4.865c2.78 0 4.865 1.783 4.865 3.566v13.234c0 1.714-2.085 3.566-4.865 3.566h-4.865c-2.78 0-4.865-1.783-4.865-3.566V16.349zm26.915 17.622V24.03h5.497s5.56 7.542 7.582 10.422c.758 1.029 1.39.138 1.011-.548-2.275-3.36-4.549-6.72-6.887-10.012 2.654-.411 5.749-.617 5.749-5.76 0-5.76-3.285-6.925-7.581-6.925h-6.129c-.505 0-.632.343-.632 1.165v21.532c0 .686.253 1.028.695 1.028.443 0 .695-.342.695-.96zm5.371-11.451h-5.307v-9.737h5.307c3.854 0 6.191 1.097 6.128 5.348-.063 4.32-2.274 4.389-6.128 4.389zm-41.131 11.657a.971.971 0 00-.379-.754L97.675 21.49l7.582-9.051c.19-.206.316-.48.316-.754-.063-.412-.379-.686-.758-.686a.867.867 0 00-.758.48l-9.54 11.383V12.029c0-.686-.253-1.029-.759-1.029-.505 0-.758.343-.758 1.029V33.97c0 .686.253 1.029.758 1.029.569 0 .822-.343.822-1.029v-8.64l2.148-2.605 9.856 11.725c.189.275.442.48.758.48s.632-.342.695-.754z" fill="#353535"/><path d="M26.068 34.065c.64 0 .831-.323.831-1.033V12.645c0-.71-.256-1.097-.895-1.097-.575 0-.83.323-.83 1.097v18.323L10.542 12.129c-.191-.323-.639-.58-1.086-.58-.639 0-.767.516-.767 1.096v20.387c0 .71.256 1.033.831 1.033.639 0 .83-.323.83-1.033V14.516l14.952 19.29c.255.194.51.323.766.259zm11.437-11.936h8.626c.703 0 1.022-.129 1.022-.645 0-.58-.32-.774-1.022-.774h-8.626v-7.484h12.587c.703 0 .959-.13.959-.645 0-.581-.32-.775-.959-.775H36.74c-.448 0-.64.323-.64 1.097v19.871c0 .71.192 1.097.64 1.097h13.353c.703 0 .959-.13.959-.645 0-.58-.32-.774-.959-.774H37.57l-.064-10.323zm33.608-10.903c-.383.064-.767.387-.83.774l-6.198 19.742-6.262-19.807c-.064-.322-.32-.645-.639-.71-.447 0-.767.259-.83.71.063.194.191.323.255.517l6.645 21.354h1.725l6.134-19.548 6.198 19.548h1.788l6.773-21.354c.064-.194.128-.323.128-.517a.834.834 0 00-.83-.71.818.818 0 00-.703.71l-6.198 19.807L72.007 12a.899.899 0 00-.894-.774zM30.349 37.742l-1.214 1.032L34.758 46l1.214-1.032-5.623-7.226zM1.214 0L0 1.032l5.623 7.226 1.214-1.032L1.214 0z" fill="#0F4CAA"/></svg>