<svg xmlns="http://www.w3.org/2000/svg" fill="none" width="13" height="15"><path clip-rule="evenodd" fill="#fff" fill-rule="evenodd" d="M 13 14.98 V 15 h -2.232 a 5.392 5.392 0 0 0 -1.875 -1.698 a 5.028 5.028 0 0 0 -2.393 -0.61 c -0.832 0 -1.652 0.21 -2.393 0.61 A 5.391 5.391 0 0 0 2.232 15 H 0 v -0.02 a 7.268 7.268 0 0 1 2.581 -3.371 A 6.594 6.594 0 0 1 6.5 10.385 a 6.594 6.594 0 0 1 3.919 1.224 A 7.269 7.269 0 0 1 13 14.98 Z M 6.51 0 H 6.5 C 5.351 0.002 4.25 0.489 3.438 1.355 a 4.773 4.773 0 0 0 -1.266 3.263 c 0 1.224 0.458 2.397 1.27 3.262 c 0.813 0.865 1.915 1.35 3.063 1.35 c 1.15 0 2.251 -0.485 3.064 -1.35 a 4.773 4.773 0 0 0 1.27 -3.262 a 4.773 4.773 0 0 0 -1.267 -3.263 C 8.761 0.489 7.66 0.002 6.511 0 Z m 2.146 4.615 c 0 0.454 -0.127 0.898 -0.364 1.276 a 2.191 2.191 0 0 1 -0.968 0.845 a 2.034 2.034 0 0 1 -1.245 0.13 a 2.119 2.119 0 0 1 -1.104 -0.629 a 2.346 2.346 0 0 1 -0.59 -1.175 a 2.435 2.435 0 0 1 0.123 -1.327 c 0.164 -0.42 0.44 -0.778 0.794 -1.03 a 2.042 2.042 0 0 1 2.023 -0.212 c 0.262 0.115 0.5 0.285 0.7 0.498 c 0.2 0.213 0.359 0.467 0.467 0.745 c 0.108 0.279 0.164 0.578 0.164 0.88 Z" /></svg>