<svg xmlns="http://www.w3.org/2000/svg" fill="none" width="146" height="42"><g clip-path="url(&quot;#clip0&quot;)" fill="#fff"><path d="M 122.184 25.978 V 15.61 c 0 -2.886 -2.816 -4.889 -6.396 -4.889 h -3.931 c -3.58 0 -6.396 1.944 -6.396 4.89 v 10.367 c 0 2.886 2.816 4.889 6.396 4.889 h 3.931 c 3.58 0 6.396 -1.944 6.396 -4.89 Z m -15.08 -10.839 c 0 -1.473 1.936 -3.063 4.518 -3.063 h 4.518 c 2.582 0 4.519 1.531 4.519 3.063 v 11.369 c 0 1.473 -1.937 3.063 -4.519 3.063 h -4.518 c -2.582 0 -4.518 -1.532 -4.518 -3.063 V 15.139 Z m 24.997 15.139 v -8.541 h 5.105 s 5.164 6.48 7.042 8.953 c 0.704 0.884 1.291 0.118 0.939 -0.47 c -2.113 -2.887 -4.225 -5.774 -6.396 -8.601 c 2.464 -0.354 5.34 -0.53 5.34 -4.948 c 0 -4.948 -3.052 -5.95 -7.042 -5.95 h -5.692 c -0.469 0 -0.587 0.295 -0.587 1.002 v 18.496 c 0 0.59 0.235 0.884 0.646 0.884 c 0.411 0 0.645 -0.295 0.645 -0.825 Z m 4.988 -9.837 h -4.929 v -8.365 h 4.929 c 3.579 0 5.751 0.942 5.692 4.595 c -0.059 3.71 -2.113 3.77 -5.692 3.77 Z m -38.2 10.014 c 0 -0.236 -0.118 -0.472 -0.353 -0.648 l -9.271 -10.25 l 7.041 -7.775 c 0.177 -0.177 0.294 -0.413 0.294 -0.649 a 0.698 0.698 0 0 0 -0.704 -0.589 c -0.294 0 -0.587 0.177 -0.704 0.413 l -8.861 9.778 v -9.307 c 0 -0.589 -0.235 -0.884 -0.704 -0.884 c -0.47 0 -0.704 0.295 -0.704 0.884 v 18.85 c 0 0.589 0.234 0.884 0.704 0.884 c 0.528 0 0.763 -0.295 0.763 -0.884 v -7.422 l 1.995 -2.239 l 9.154 10.073 c 0.176 0.236 0.41 0.413 0.704 0.413 c 0.293 0 0.587 -0.295 0.645 -0.648 Z M 24.189 31.102 c 0.587 0 0.763 -0.294 0.763 -0.942 V 11.546 c 0 -0.648 -0.235 -1.002 -0.822 -1.002 c -0.528 0 -0.763 0.295 -0.763 1.002 v 16.729 L 9.93 11.075 c -0.176 -0.295 -0.587 -0.53 -0.998 -0.53 c -0.587 0 -0.704 0.47 -0.704 1 V 30.16 c 0 0.648 0.235 0.942 0.763 0.942 c 0.587 0 0.763 -0.294 0.763 -0.942 V 13.254 l 13.73 17.613 c 0.235 0.177 0.47 0.294 0.705 0.235 Z m 10.504 -10.897 h 7.921 c 0.646 0 0.94 -0.118 0.94 -0.59 c 0 -0.53 -0.294 -0.706 -0.94 -0.706 h -7.921 v -6.833 h 11.56 c 0.645 0 0.88 -0.118 0.88 -0.59 c 0 -0.53 -0.294 -0.706 -0.88 -0.706 H 33.989 c -0.411 0 -0.587 0.294 -0.587 1.001 v 18.143 c 0 0.648 0.176 1.002 0.587 1.002 h 12.264 c 0.645 0 0.88 -0.118 0.88 -0.59 c 0 -0.53 -0.294 -0.706 -0.88 -0.706 H 34.75 l -0.058 -9.425 Z m 30.865 -9.955 c -0.352 0.059 -0.704 0.353 -0.763 0.707 l -5.692 18.025 l -5.75 -18.084 c -0.059 -0.295 -0.294 -0.59 -0.587 -0.648 c -0.41 0 -0.704 0.235 -0.763 0.648 c 0.059 0.176 0.176 0.294 0.235 0.47 l 6.103 19.499 h 1.584 l 5.633 -17.849 l 5.692 17.849 h 1.643 l 6.22 -19.498 c 0.059 -0.177 0.118 -0.295 0.118 -0.471 a 0.764 0.764 0 0 0 -0.763 -0.648 a 0.749 0.749 0 0 0 -0.646 0.648 L 72.13 28.982 l -5.75 -18.026 a 0.824 0.824 0 0 0 -0.822 -0.706 Z M 28.12 34.46 l -1.114 0.943 L 32.169 42 l 1.115 -0.943 l -5.163 -6.597 Z M 1.363 0 L 0.248 0.942 L 5.41 7.54 l 1.115 -0.943 L 1.362 0 Z" /></g><defs><clipPath id="clip0"><path fill="#fff" d="M 0 0 h 145.552 v 42 H 0 Z" /></clipPath></defs></svg>