<svg xmlns="http://www.w3.org/2000/svg" fill="none" width="28" height="37"><path fill="#868686" d="M 20.125 8.939 V 1.472 C 20.125 0.66 19.466 0 18.654 0 H 9.346 c -0.812 0 -1.471 0.66 -1.471 1.472 V 8.94 C 3.362 10.033 0 14.106 0 18.953 v 11.495 C 0 34.06 2.938 37 6.55 37 h 14.9 c 3.612 0 6.55 -2.94 6.55 -6.552 V 18.953 c 0 -4.847 -3.362 -8.92 -7.875 -10.014 Z m -9.307 -5.994 h 6.364 v 5.703 h -6.364 V 2.945 Z m 14.239 27.503 a 3.612 3.612 0 0 1 -3.607 3.608 H 6.55 a 3.612 3.612 0 0 1 -3.607 -3.608 V 18.953 c 0 -4.06 3.301 -7.361 7.358 -7.361 H 17.7 c 4.057 0 7.358 3.302 7.358 7.36 v 11.495 Z" /></svg>