<svg xmlns="http://www.w3.org/2000/svg" fill="none" width="49" height="38"><path fill="#868686" d="M 1.67 0 C 0.764 0 0 0.767 0 1.676 v 34.647 C 0 37.233 0.764 38 1.67 38 h 6.682 c 0.906 0 1.67 -0.767 1.67 -1.677 V 1.676 C 10.023 0.767 9.259 0 8.353 0 H 1.67 Z m 14.478 0 c -0.906 0 -1.67 0.767 -1.67 1.676 v 34.647 c 0 0.91 0.764 1.677 1.67 1.677 h 6.125 c 0.588 0.008 1.13 -0.527 1.13 -1.118 c 0 -0.59 -0.542 -1.126 -1.13 -1.117 h -5.569 V 2.235 h 30.069 v 33.53 H 26.727 c -0.588 -0.009 -1.13 0.527 -1.13 1.117 s 0.542 1.126 1.13 1.118 H 47.33 c 0.906 0 1.67 -0.767 1.67 -1.677 V 1.676 C 49 0.767 48.236 0 47.33 0 H 16.148 Z M 2.228 2.235 h 5.567 v 33.53 H 2.227 V 2.235 Z M 19.94 7.824 c -0.583 0.027 -1.089 0.584 -1.062 1.17 c 0.028 0.585 0.583 1.092 1.166 1.065 H 24.5 c 0.588 0.008 1.13 -0.527 1.13 -1.118 c 0 -0.59 -0.542 -1.126 -1.13 -1.117 h -4.559 Z m 9.466 0 c -0.583 0.027 -1.089 0.584 -1.062 1.17 c 0.028 0.585 0.583 1.092 1.166 1.065 h 4.455 c 0.588 0.008 1.13 -0.527 1.13 -1.118 c 0 -0.59 -0.542 -1.126 -1.13 -1.117 h -4.559 Z m 9.466 0 c -0.583 0.027 -1.09 0.584 -1.062 1.17 c 0.028 0.585 0.583 1.092 1.166 1.065 h 4.455 c 0.588 0.008 1.13 -0.527 1.13 -1.118 c 0 -0.59 -0.542 -1.126 -1.13 -1.117 h -4.56 Z M 19.94 13.412 c -0.583 0.027 -1.089 0.584 -1.062 1.17 c 0.028 0.585 0.583 1.093 1.166 1.065 H 24.5 c 0.588 0.008 1.13 -0.527 1.13 -1.118 c 0 -0.59 -0.542 -1.126 -1.13 -1.117 h -4.559 Z m 9.466 0 c -0.583 0.027 -1.089 0.584 -1.062 1.17 c 0.028 0.585 0.583 1.093 1.166 1.065 h 4.455 c 0.588 0.008 1.13 -0.527 1.13 -1.118 c 0 -0.59 -0.542 -1.126 -1.13 -1.117 h -4.559 Z m 9.466 0 c -0.583 0.027 -1.09 0.584 -1.062 1.17 c 0.028 0.585 0.583 1.093 1.166 1.065 h 4.455 c 0.588 0.008 1.13 -0.527 1.13 -1.118 c 0 -0.59 -0.542 -1.126 -1.13 -1.117 h -4.56 Z M 19.94 19 c -0.583 0.027 -1.089 0.585 -1.062 1.17 c 0.028 0.585 0.583 1.093 1.166 1.065 H 24.5 c 0.588 0.009 1.13 -0.527 1.13 -1.117 S 25.087 18.992 24.5 19 h -4.559 Z m 9.466 0 c -0.583 0.027 -1.089 0.585 -1.062 1.17 c 0.028 0.585 0.583 1.093 1.166 1.065 h 4.455 c 0.588 0.009 1.13 -0.527 1.13 -1.117 s -0.542 -1.126 -1.13 -1.118 h -4.559 Z m 9.466 0 c -0.583 0.027 -1.09 0.585 -1.062 1.17 c 0.028 0.585 0.583 1.093 1.166 1.065 h 4.455 c 0.588 0.009 1.13 -0.527 1.13 -1.117 s -0.542 -1.126 -1.13 -1.118 h -4.56 Z" /></svg>