<svg xmlns="http://www.w3.org/2000/svg" fill="none" width="40" height="34"><path fill="#868686" stroke="#868686" stroke-width="0.5" d="M 39.25 24.056 V 5.057 A 4.307 4.307 0 0 0 34.952 0.75 H 5.048 A 4.307 4.307 0 0 0 0.75 5.057 v 18.997 a 4.305 4.305 0 0 0 4.298 4.295 h 10.72 v 3.211 H 12.87 v 1.69 H 27.117 v -1.69 h -2.896 V 28.35 H 34.94 c 2.37 0 4.297 -1.932 4.31 -4.293 Z M 17.454 31.56 V 28.35 h 5.08 v 3.211 h -5.08 Z M 2.437 5.057 A 2.615 2.615 0 0 1 5.048 2.44 h 29.904 a 2.616 2.616 0 0 1 2.61 2.617 v 18.997 a 2.616 2.616 0 0 1 -2.61 2.617 H 5.048 a 2.616 2.616 0 0 1 -2.61 -2.617 V 5.057 Z" /></svg>