<svg xmlns="http://www.w3.org/2000/svg" fill="none" width="39" height="39"><path fill="#868686" stroke="#868686" stroke-width="0.3" d="M 36.35 23.733 v 0.15 h 0.008 c -0.08 1.754 -1.544 3.201 -3.344 3.201 H 30.6 v -6.372 c 0 -0.504 -0.411 -0.84 -0.894 -0.84 H 9.293 c -0.485 0 -0.894 0.348 -0.894 0.84 v 6.372 H 5.986 c -1.85 0 -3.347 -1.53 -3.347 -3.35 V 13.071 c 0 -1.82 1.496 -3.351 3.347 -3.351 h 27.017 c 1.851 0 3.348 1.53 3.348 3.351 v 10.661 Z m -26.056 -9.982 v -0.15 H 7.654 V 15.365 H 10.295 V 13.75 Z m 22.72 -5.794 h -4.54 V 3.822 c 0 -1.643 -1.355 -2.972 -3.02 -2.972 H 13.546 c -1.665 0 -3.02 1.33 -3.02 2.972 v 4.135 h -4.54 C 3.15 7.957 0.85 10.282 0.85 13.072 v 10.661 c 0 2.79 2.3 5.115 5.136 5.115 H 8.4 v 6.33 c 0 1.643 1.356 2.972 3.02 2.972 h 16.162 c 1.664 0 3.02 -1.33 3.02 -2.972 v -6.33 h 2.413 c 2.836 0 5.136 -2.325 5.136 -5.115 V 13.072 c 0 -2.79 -2.3 -5.115 -5.136 -5.115 Z m -20.7 -4.135 c 0 -0.667 0.547 -1.209 1.232 -1.209 h 11.908 c 0.685 0 1.232 0.542 1.232 1.209 v 4.135 H 12.314 V 3.822 Z m 16.499 31.356 c 0 0.667 -0.547 1.209 -1.232 1.209 H 11.419 a 1.218 1.218 0 0 1 -1.232 -1.209 V 21.636 h 18.626 v 13.542 Z" /></svg>