<svg xmlns="http://www.w3.org/2000/svg" fill="none" width="47" height="38"><path fill="#868686" d="M 41.594 38 H 5.406 C 2.426 38 0 35.534 0 32.504 V 5.497 C 0 2.466 2.425 0 5.406 0 h 36.188 C 44.574 0 47 2.466 47 5.497 v 27.007 C 47 35.534 44.575 38 41.594 38 Z M 5.406 2.643 C 3.86 2.643 2.6 3.923 2.6 5.497 v 27.007 c 0 1.573 1.26 2.853 2.807 2.853 h 36.188 c 1.547 0 2.807 -1.28 2.807 -2.853 V 5.497 c 0 -1.574 -1.26 -2.854 -2.807 -2.854 H 5.406 Z" /><path fill="#868686" d="M 35.62 20.321 H 11.378 c -2.92 0 -5.298 -2.415 -5.298 -5.387 V 11.76 c 0 -2.97 2.375 -5.386 5.298 -5.386 H 35.62 c 2.92 0 5.298 2.415 5.298 5.386 v 3.175 c 0 2.97 -2.375 5.387 -5.298 5.387 Z M 11.378 9.013 c -1.49 0 -2.699 1.23 -2.699 2.744 v 3.178 c 0 1.514 1.21 2.744 2.7 2.744 h 24.24 c 1.49 0 2.7 -1.23 2.7 -2.744 v -3.176 c 0 -1.514 -1.21 -2.744 -2.7 -2.744 l -24.24 -0.002 Z M 35.87 33.534 c -2.783 0 -5.048 -2.303 -5.048 -5.133 s 2.265 -5.132 5.048 -5.132 s 5.048 2.303 5.048 5.132 c 0 2.83 -2.265 5.133 -5.048 5.133 Z m 0 -7.623 c -1.35 0 -2.45 1.118 -2.45 2.49 s 1.1 2.49 2.45 2.49 s 2.449 -1.117 2.449 -2.49 c 0 -1.372 -1.098 -2.49 -2.45 -2.49 Z M 12.878 29.723 H 7.379 a 1.31 1.31 0 0 1 -1.3 -1.322 c 0 -0.73 0.583 -1.32 1.3 -1.32 h 5.499 c 0.717 0 1.3 0.59 1.3 1.32 a 1.31 1.31 0 0 1 -1.3 1.322 Z M 22 29.723 h -5.498 a 1.31 1.31 0 0 1 -1.3 -1.322 c 0 -0.73 0.583 -1.32 1.3 -1.32 H 22 c 0.718 0 1.3 0.59 1.3 1.32 a 1.31 1.31 0 0 1 -1.3 1.322 Z" /></svg>